<svg xmlns="http://www.w3.org/2000/svg" version="1.0" width="2225.764044763223" height="401.134831334256" preserveAspectRatio="xMidYMid meet" style=""><rect id="backgroundrect" width="100%" height="100%" x="0" y="0" fill="none" stroke="none"/>


<g class="currentLayer" style=""><title>Layer 1</title><g transform="translate(0,409) scale(0.10000000149011612,-0.10000000149011612) " fill="#2e74b6" stroke="none" id="svg_1" class="" fill-opacity="1">
<path d="M8184.074691657084,2090.730318903923 l0,-1985.7865017652512 l7027.513112425804,0 l7027.513112425804,0 l0,1985.7865017652512 l0,1985.7865017652512 l-7027.513112425804,0 l-7027.513112425804,0 l0,-1985.7865017652512 zm1779.3703186511993,344.2695191502571 l0,-1471.8769297003746 l669.7629851102829,0 l669.7629851102829,0 l0,-339.2801058292389 l0,-339.2801058292389 l-1094.6126398444176,0 l-1094.6126398444176,0 l0,1811.1570355296135 l0,1811.1570355296135 l424.8496547341347,0 l424.8496547341347,0 l0,-1471.8769297003746 zm5702.981835901737,469.0048521757126 c380.8652198910713,-25.94494926929474 705.7502499818802,-279.40714597702026 822.7088608145714,-643.6343184113503 c50.98195856809616,-155.66969561576843 51.98160481452942,-180.61676222085953 51.98160481452942,-1109.645522594452 l0,-867.1600351929665 l-236.91616040468216,2.9936479926109314 c-206.92677301168442,2.9936479926109314 -242.9140378832817,4.989413321018219 -274.90271776914597,21.953418612480164 c-45.98372733592987,21.953418612480164 -87.96886968612671,83.82214379310608 -122.95648831129074,180.61676222085953 c-14.99469369649887,40.913189232349396 -31.988679885864258,74.84119981527328 -36.98691111803055,74.84119981527328 c-5.997877478599548,0 -30.989033639431,-17.96188795566559 -56.97983604669571,-38.91742390394211 c-80.9713459610939,-67.85602116584778 -240.9147453904152,-168.6421702504158 -317.88750636577606,-200.5744155049324 c-152.94587570428848,-63.8644905090332 -207.92641925811768,-72.845434486866 -427.84859347343445,-73.84331715106964 c-175.93773937225342,0 -209.9257117509842,2.9936479926109314 -279.90094900131226,21.953418612480164 c-208.92606550455093,57.87719452381134 -348.87654000520706,166.64640492200851 -432.84682470560074,336.28645783662796 c-52.98125106096268,106.77344506978989 -65.97665226459503,173.63158357143402 -65.97665226459503,334.2906925082207 c0,134.7141596674919 1.9992924928665161,149.68239963054657 27.990094900131226,219.53418612480164 c90.96780842542648,238.49395674467087 284.89918023347855,394.1636523604393 634.7753664851189,508.92015874385834 c202.92818802595139,65.86025583744049 390.8616823554039,96.79461842775345 663.7651076316833,106.77344506978989 l168.9402156472206,5.987295985221863 l-3.9985849857330322,135.71204233169556 c-5.997877478599548,189.59770619869232 -40.98549610376358,276.41349798440933 -139.95047450065613,342.2737538218498 c-62.97771352529526,42.90895456075668 -110.96073335409164,52.88778120279312 -237.91580665111542,51.88989853858948 c-137.9511820077896,-0.9978826642036436 -204.9274805188179,-20.95553594827652 -389.86203610897064,-113.7586237192154 c-128.9543657898903,-64.86237317323685 -206.92677301168442,-83.82214379310608 -289.89741146564484,-70.84966915845871 c-97.96533215045929,15.9661226272583 -148.94729071855545,64.86237317323685 -253.91014659404755,249.47066605091095 c-78.97205346822739,139.70357298851013 -81.97099220752716,123.73745036125183 34.98761862516403,210.55324214696884 c202.92818802595139,150.6802822947502 440.8439946770668,251.46643137931824 693.7544950246811,296.3711512684822 c95.96603965759277,15.9661226272583 296.89493519067764,31.9322452545166 354.8744174838066,26.942831933498383 c18.993278682231903,-1.9957653284072876 70.97488349676132,-5.987295985221863 114.95931833982468,-8.980943977832794 zm2954.954304456711,0 c31.988679885864258,-3.991530656814575 81.97099220752716,-18.959770619869232 119.95754957199097,-37.919541239738464 c55.98018980026245,-27.940714597702026 63.977359771728516,-35.92377591133118 60.97842103242874,-56.8793118596077 c-21.992217421531677,-154.6718129515648 -104.9628558754921,-586.7550065517426 -116.95861083269119,-604.7168945074081 c-22.991863667964935,-35.92377591133118 -84.96993094682693,-48.896250545978546 -174.93809312582016,-34.92589324712753 c-91.96745467185974,13.970357298851013 -229.91863667964935,13.970357298851013 -288.8977652192116,0 c-115.95896458625793,-25.94494926929474 -226.91969794034958,-110.76497572660446 -310.88998264074326,-234.5024260878563 l-49.9823123216629,-75.83908247947693 l0,-787.329422056675 l0,-787.329422056675 l-384.86380487680435,0 l-384.86380487680435,0 l0,1293.2559328079224 l0,1293.2559328079224 l267.90519404411316,-3.991530656814575 c278.901302754879,-3.991530656814575 313.88892138004303,-9.978826642036438 363.87123370170593,-54.88354653120041 c24.99115616083145,-21.953418612480164 46.98337358236313,-97.79250109195709 71.97452974319458,-239.4918394088745 l21.992217421531677,-123.73745036125183 l33.987972378730774,47.8983678817749 c135.9518895149231,191.5934715270996 332.88220006227493,349.25893247127533 489.82666075229645,393.16576969623566 c51.98160481452942,13.970357298851013 162.94233816862106,26.942831933498383 199.9292492866516,22.951301276683807 c13.995047450065613,-1.9957653284072876 49.9823123216629,-5.987295985221863 80.9713459610939,-8.980943977832794 zm-5678.990325987339,-9.978826642036438 c51.98160481452942,-2.9936479926109314 123.956134557724,-11.974591970443726 159.9433994293213,-19.957653284072876 c435.8457634449005,-100.78614908456802 714.7470661997795,-375.20388174057007 825.7077995538712,-809.2828406691551 c45.98372733592987,-182.61252754926682 49.9823123216629,-490.95827078819275 6.9975237250328055,-565.799470603466 c-40.98549610376358,-69.85178649425507 -0.9996462464332583,-66.85813850164413 -860.6954181790352,-66.85813850164413 c-731.7410523891449,0 -772.7265484929085,-0.9978826642036436 -767.7283172607422,-16.964005291461945 c1.9992924928665161,-9.978826642036438 7.9971699714660645,-37.919541239738464 10.996108710765839,-62.86660784482956 c12.995401203632355,-82.82426112890244 63.977359771728516,-225.5214821100235 102.96356338262558,-285.3944419622421 c116.95861083269119,-180.61676222085953 352.8751249909401,-272.42196732759476 601.7870403528214,-234.5024260878563 c107.96179461479187,16.964005291461945 156.94446069002151,33.92801058292389 326.8843225836754,117.75015437602997 c162.94233816862106,79.8306131362915 227.91934418678284,95.7967357635498 294.8956426978111,73.84331715106964 c41.98514235019684,-13.970357298851013 76.97276097536087,-49.89413321018219 206.92677301168442,-209.5553594827652 c116.95861083269119,-145.690868973732 117.95825707912445,-128.72686368227005 -16.993986189365387,-245.47913539409637 c-176.93738561868668,-152.6760476231575 -396.85955983400345,-252.46431404352188 -661.7658151388168,-300.3626819252968 c-46.98337358236313,-8.980943977832794 -167.94056940078735,-17.96188795566559 -269.9044865369797,-20.95553594827652 c-158.94375318288803,-4.989413321018219 -201.92854177951813,-1.9957653284072876 -309.89033639431,15.9661226272583 c-426.8489472270012,72.845434486866 -736.7392836213112,297.36903393268585 -914.6763154864311,663.5919716954231 c-90.96780842542648,187.60194087028503 -126.95507329702377,325.3097485303879 -144.94870573282242,556.8185266256332 c-22.991863667964935,304.35421258211136 34.98761862516403,585.7571238875389 166.9409231543541,812.276488661766 c174.93809312582016,297.36903393268585 467.83444333076477,508.92015874385834 802.7159358859062,577.7740625739098 c82.97063845396042,16.964005291461945 269.9044865369797,33.92801058292389 319.8867988586426,28.93859726190567 c13.995047450065613,-1.9957653284072876 67.97594475746155,-5.987295985221863 119.95754957199097,-8.980943977832794 zm7871.214544415474,-10.976709306240082 c313.88892138004303,-59.87295985221863 550.8050817847252,-295.37326860427856 634.7753664851189,-631.6597264409065 c38.986203610897064,-151.67816495895386 40.98549610376358,-211.55112481117249 40.98549610376358,-1099.6666959524155 l0,-867.1600351929665 l-389.86203610897064,0 l-389.86203610897064,0 l0,861.1727392077446 c0,938.0097043514252 0.9996462464332583,926.0351123809814 -56.97983604669571,1023.8276134729385 c-34.98761862516403,59.87295985221863 -66.97629851102829,88.8115571141243 -132.95295077562332,119.74591970443726 c-46.98337358236313,21.953418612480164 -67.97594475746155,24.947066605091095 -149.9469369649887,24.947066605091095 c-57.97948229312897,0 -114.95931833982468,-6.985178649425507 -147.9476444721222,-16.964005291461945 c-72.97417598962784,-21.953418612480164 -176.93738561868668,-78.83273047208786 -243.91368412971497,-132.71839433908463 l-57.97948229312897,-45.902602553367615 l0,-917.0541684031487 l0,-917.0541684031487 l-389.86203610897064,0 l-389.86203610897064,0 l1.9992924928665161,1290.2622848153114 l2.998938739299774,1289.2644021511078 l269.9044865369797,0 c259.9080240726471,0 271.9037790298462,-0.9978826642036436 311.8896288871765,-21.953418612480164 c54.98054355382919,-29.936479926109314 75.97311472892761,-60.87084251642227 107.96179461479187,-165.64852225780487 l26.990448653697968,-87.81367444992065 l42.984788596630096,39.91530656814575 c246.91262286901474,227.5172474384308 572.7972992062569,318.3245698809624 908.6784380078316,254.46007937192917 z" id="svg_2" fill="#2e74b6"/>
<path d="M15546.46929663803,1315.3754888176918 c-21.992217421531677,-1.9957653284072876 -75.97311472892761,-10.976709306240082 -119.95754957199097,-18.959770619869232 c-292.8963502049446,-55.88142919540405 -417.85213100910187,-159.661226272583 -401.85779106616974,-333.29280984401703 c12.995401203632355,-144.69298630952835 91.96745467185974,-200.5744155049324 281.9002414941788,-200.5744155049324 c54.98054355382919,-0.9978826642036436 122.95648831129074,4.989413321018219 149.9469369649887,10.976709306240082 c80.9713459610939,19.957653284072876 184.93455559015274,74.84119981527328 256.9090853333473,136.7099249958992 l67.97594475746155,57.87719452381134 l0,177.6231142282486 l0,176.62523156404495 l-96.96568590402603,-1.9957653284072876 c-53.980897307395935,-0.9978826642036436 -115.95896458625793,-2.9936479926109314 -137.9511820077896,-4.989413321018219 z" id="svg_3" fill="#2e74b6"/>
<path d="M12772.450962785739,2363.152286231518 c-244.91333037614822,-18.959770619869232 -393.8606210947037,-166.64640492200851 -454.8390421271324,-450.04508155584335 l-6.9975237250328055,-31.9322452545166 l477.83090579509735,1.9957653284072876 l477.83090579509735,2.9936479926109314 l-2.998938739299774,52.88778120279312 c-5.997877478599548,121.74168503284454 -62.97771352529526,255.4579620361328 -134.95224326848984,318.3245698809624 c-50.98195856809616,43.90683722496033 -146.94799822568893,90.80732244253159 -199.9292492866516,96.79461842775345 c-72.97417598962784,8.980943977832794 -119.95754957199097,11.974591970443726 -155.94481444358826,8.980943977832794 z" id="svg_4" fill="#2e74b6"/>
<path d="M1596.4059276619132,3920.8471250534058 c-787.7212421894073,-110.76497572660446 -1345.5238476991653,-590.7465372085571 -1527.4594645500183,-1317.2051167488098 c-44.98408108949661,-178.62099689245224 -56.97983604669571,-285.3944419622421 -55.98018980026245,-512.9116894006729 c0,-246.47701805830002 21.992217421531677,-393.16576969623566 88.96851593255997,-594.7380678653717 c93.96674716472626,-285.3944419622421 215.92358922958374,-489.9603881239891 414.8531922698021,-696.5220996141434 c255.90943908691406,-265.43678867816925 585.7927004098892,-443.05990290641785 958.6607503294945,-514.9074547290802 c290.8970577120781,-56.8793118596077 716.746358692646,-42.90895456075668 1065.622898697853,34.92589324712753 c214.92394298315048,46.90048521757126 440.8439946770668,142.69722098112106 622.7796115279198,261.4452580213547 l81.97099220752716,53.885663866996765 l0,763.3802381157875 l0,762.3823554515839 l-644.7718289494514,0 l-644.7718289494514,0 l0,-241.4876047372818 c0,-219.53418612480164 1.9992924928665161,-244.48125272989273 19.99292492866516,-282.4007939696312 c35.98726487159729,-73.84331715106964 54.98054355382919,-79.8306131362915 297.8945814371109,-82.82426112890244 l211.9250042438507,-2.9936479926109314 l0,-278.4092633128166 l0,-277.411380648613 l-111.9603796005249,-35.92377591133118 c-133.95259702205658,-42.90895456075668 -185.934201836586,-52.88778120279312 -333.8818463087082,-65.86025583744049 c-172.93880063295364,-14.968239963054657 -354.8744174838066,6.985178649425507 -501.82241570949554,59.87295985221863 c-392.8609748482704,144.69298630952835 -642.7725364565849,526.8820466995239 -670.7626313567162,1027.819144129753 c-24.99115616083145,455.0344948768616 106.96214836835861,827.2447286248207 370.86875742673874,1047.776797413826 c207.92641925811768,173.63158357143402 450.8404571413994,241.4876047372818 785.7219496965408,219.53418612480164 c230.9182829260826,-15.9661226272583 376.8666349053383,-59.87295985221863 587.7919929027557,-179.61887955665588 c134.95224326848984,-75.83908247947693 188.93314057588577,-94.79885309934616 251.91085410118103,-85.81790912151337 c80.9713459610939,10.976709306240082 114.95931833982468,43.90683722496033 263.9066090583801,266.4346713423729 c75.97311472892761,111.7628583908081 137.9511820077896,205.56382882595062 136.95153576135635,208.55747681856155 c-0.9996462464332583,10.976709306240082 -147.9476444721222,125.73321568965912 -223.9207592010498,175.6273488998413 c-206.92677301168442,134.7141596674919 -441.84364092350006,223.5257167816162 -739.738222360611,278.4092633128166 c-127.95471954345703,23.94918394088745 -559.8018980026245,29.936479926109314 -704.7506037354469,8.980943977832794 z" id="svg_5" fill="#2e74b6"/>
<path d="M5155.146564964312,3921.8450077176094 c-268.9048402905464,-37.919541239738464 -511.8188781738281,-121.74168503284454 -725.7431749105453,-250.4685487151146 c-132.95295077562332,-78.83273047208786 -195.93066430091858,-126.73109835386276 -307.8910439014435,-233.50454342365265 c-265.90590155124664,-253.46219670772552 -429.84788596630096,-555.8206439614296 -512.8185244202614,-944.9948830008507 c-25.99080240726471,-120.7438023686409 -26.990448653697968,-141.69933831691742 -26.990448653697968,-397.15730035305023 c0,-255.4579620361328 0.9996462464332583,-276.41349798440933 26.990448653697968,-397.15730035305023 c168.9402156472206,-789.3251873850822 738.7385761141777,-1316.2072340846062 1546.4527432322502,-1429.9658578038216 c251.91085410118103,-35.92377591133118 582.7937616705894,-17.96188795566559 834.7046157717705,45.902602553367615 c911.6773767471313,229.51301276683807 1460.48316603899,1094.6772826313972 1319.5330452919006,2083.5790028572083 c-71.97452974319458,501.93498009443283 -350.8758324980736,952.9779443144798 -757.7318547964096,1223.4041463136673 c-251.91085410118103,167.64428758621216 -534.8107418417931,270.42620199918747 -841.7021394968033,305.352095246315 c-122.95648831129074,13.970357298851013 -438.8447021842003,10.976709306240082 -554.8036667704582,-4.989413321018219 zm544.8072043061256,-693.5284516215324 c347.8768937587738,-68.85390383005142 594.7895166277885,-297.36903393268585 708.74918872118,-657.6046757102013 c50.98195856809616,-161.6569916009903 60.97842103242874,-238.49395674467087 60.97842103242874,-484.9709748029709 c-0.9996462464332583,-215.54265546798706 -2.998938739299774,-236.49819141626358 -27.990094900131226,-347.26316714286804 c-32.988326132297516,-137.70780766010284 -64.97700601816177,-226.51936477422714 -113.95967209339142,-316.3288045525551 c-155.94481444358826,-288.38808995485306 -413.85354602336884,-450.04508155584335 -760.7307935357094,-477.9857961535454 c-501.82241570949554,-40.913189232349396 -870.6918806433678,168.6421702504158 -1043.6306812763214,589.7486545443535 c-68.9755910038948,170.6379355788231 -104.9628558754921,409.13189232349396 -94.96639341115952,636.6491397619247 c17.993632435798645,413.12342298030853 160.94304567575455,724.4628142118454 412.8538997769356,904.0816937685013 c220.92182046175003,157.66546094417572 544.8072043061256,215.54265546798706 858.6961256861687,153.67393028736115 z" id="svg_6" fill="#2e74b6"/>
</g></g></svg>