<svg xmlns="http://www.w3.org/2000/svg" viewBox="0 0 1079.98 281.54"><defs><style>.cls-1,.cls-3{fill:#fff;}.cls-2,.cls-3{font-size:270px;font-family:Lato-Black, Lato;font-weight:800;}.cls-2{fill:#f15a24;}</style></defs><title>golearn-plain</title><g id="Learn"><path class="cls-1" d="M710.41,175.68q-4.73,2.44-6.55,5.56A13.19,13.19,0,0,0,702,188q0,7.17,3.91,10.09T717.43,201a33.33,33.33,0,0,0,14.17-2.82,43.13,43.13,0,0,0,12.29-9.13V170a108.44,108.44,0,0,0-20.66,1.62A50.09,50.09,0,0,0,710.41,175.68Z" transform="translate(-0.02 7.46)"/><path class="cls-1" d="M601.8,122a21.21,21.21,0,0,0-7.62-6,26.25,26.25,0,0,0-11.48-2.28q-12,0-18.76,6.78T555,140.05h52.24a36.7,36.7,0,0,0-1.28-9.66A23.4,23.4,0,0,0,601.8,122Z" transform="translate(-0.02 7.46)"/><path class="cls-1" d="M363,15V238h717V15ZM505.75,226.38H387.22V30.77h45.63V190.13h72.9ZM644.4,156.43a12,12,0,0,1-1.49,4.7,5.65,5.65,0,0,1-2.9,2.42,13.64,13.64,0,0,1-4.66.67H554.62q2,17.46,10.67,25.31t22.27,7.85a40.22,40.22,0,0,0,12.56-1.74,63.57,63.57,0,0,0,9.38-3.89c2.74-1.44,5.26-2.73,7.56-3.9a15.78,15.78,0,0,1,7.22-1.74,8.66,8.66,0,0,1,7.56,3.62L644,204.63a62.1,62.1,0,0,1-14,12,72.66,72.66,0,0,1-15.39,7.25,84.19,84.19,0,0,1-15.8,3.63,119.26,119.26,0,0,1-15.05,1,79.19,79.19,0,0,1-27.61-4.76,63.45,63.45,0,0,1-22.54-14.17,66.74,66.74,0,0,1-15.26-23.36q-5.6-14-5.6-32.49a73.26,73.26,0,0,1,4.79-26.45,64.45,64.45,0,0,1,35.51-36.79,78,78,0,0,1,54.27-1.21,55.43,55.43,0,0,1,19.84,12.49,56.82,56.82,0,0,1,13,20.07,73.21,73.21,0,0,1,4.66,26.92A58.35,58.35,0,0,1,644.4,156.43Zm140.26,69.95H765.49c-4,0-7-.53-9-1.61s-3.71-3.31-5.06-6.71l-3-7.65q-5.26,4.43-10.13,7.78a63.76,63.76,0,0,1-10.05,5.71,49.8,49.8,0,0,1-11.07,3.49,68.63,68.63,0,0,1-13,1.14A57.31,57.31,0,0,1,686.78,226a36.3,36.3,0,0,1-13.29-7.34,32.18,32.18,0,0,1-8.44-12.06,43.33,43.33,0,0,1-3-16.63,34.82,34.82,0,0,1,3.78-15.22Q669.64,167,679,160.58t25.11-10.71q15.8-4.31,39.83-4.31v-6q0-12.33-5.06-17.82t-14.38-5.49a38.46,38.46,0,0,0-12.15,1.61,54.88,54.88,0,0,0-8.44,3.63c-2.48,1.34-4.88,2.55-7.22,3.62a19.84,19.84,0,0,1-8.37,1.61,12.7,12.7,0,0,1-7.36-2.08,15.55,15.55,0,0,1-4.79-5.17l-7.56-13a85.06,85.06,0,0,1,28.15-16.58,99,99,0,0,1,33.14-5.44,60.91,60.91,0,0,1,22.88,4.1A49.14,49.14,0,0,1,770,100a49.77,49.77,0,0,1,10.87,17.38,62.24,62.24,0,0,1,3.78,22ZM901.83,119.65a6,6,0,0,1-2.16,4,7.33,7.33,0,0,1-4.31,1.14,28.1,28.1,0,0,1-5.4-.61,42.52,42.52,0,0,0-7.83-.6q-16.49,0-25.92,17.45v85.39H814.36V87.16H839.2a21.7,21.7,0,0,1,5.19.53,9.11,9.11,0,0,1,3.51,1.68,7.09,7.09,0,0,1,2.16,3A27.83,27.83,0,0,1,851.35,97l2.29,13a68.24,68.24,0,0,1,17.28-18.66,35.22,35.22,0,0,1,20.93-6.85q9.57,0,15.39,4.57Zm150.93,106.73h-41.85V137.91q0-10.2-4.72-15.91t-13.91-5.71a29.38,29.38,0,0,0-13,2.95,50.22,50.22,0,0,0-11.61,7.93v99.21H925.86V87.16h25.92a11.62,11.62,0,0,1,6.55,1.74A9.32,9.32,0,0,1,962,94.14l2.43,8a103.15,103.15,0,0,1,8.37-7,49,49,0,0,1,9.25-5.44,55.6,55.6,0,0,1,10.67-3.49A57.46,57.46,0,0,1,1005.24,85a49.25,49.25,0,0,1,20.32,4,42.1,42.1,0,0,1,14.92,11,47.43,47.43,0,0,1,9.18,16.78,69.26,69.26,0,0,1,3.1,21.15Z" transform="translate(-0.02 7.46)"/></g><g id="Go"><text class="cls-2" transform="translate(0 233.35)">Go</text><text class="cls-3" transform="translate(0 233.35)">Go</text></g></svg>